# xmcd
#
# Track frame offsets:
#	150
#	1577
#	11805
#	20527
#	29825
#	42735
#	51970
#	61765
#	70357
#	78735
#	93735
#	98480
#	110810
#	117697
#	121997
#	129725
#	138195
#	141270
#	144027
#
# Disc length: 2020 seconds
#
# Revision: 0
# Processed by: cddbd v1.4b42PL1 Copyright (c) Steve Scherf et al.
# Submitted via: EZCDDA 4.3.3.2
#
DISCID=1707e213
DTITLE=Jerry Clower - Live At DollyWood
DYEAR=1900
DGENRE=
TTITLE0=Intro
TTITLE1=Miss Flossie Ledbetter
TTITLE2=Marcel For Congress
TTITLE3=The Big Red Goat
TTITLE4=Seein' Eye Dog
TTITLE5=Odell's Puzzle
TTITLE6=Big Time Fishin'
TTITLE7=Brother Lucky
TTITLE8=Part Time Vet
TTITLE9=Do You Want Some Soup
TTITLE10=Have We Lost Our Mind
TTITLE11=World's Largest Bull
TTITLE12=The Third Grade
TTITLE13=A Best Friend
TTITLE14=Revival At East Fork
TTITLE15=Honor Your Father and Your Mother
TTITLE16=Arletha Hogue
TTITLE17=One Way Streets
TTITLE18=Never Give Up
EXTD=
EXTT0=
EXTT1=
EXTT2=
EXTT3=
EXTT4=
EXTT5=
EXTT6=
EXTT7=
EXTT8=
EXTT9=
EXTT10=
EXTT11=
EXTT12=
EXTT13=
EXTT14=
EXTT15=
EXTT16=
EXTT17=
EXTT18=
PLAYORDER=
